<svg width="120" height="130" viewBox="0 0 120 130" fill="none" xmlns="http://www.w3.org/2000/svg">
<path d="M70.5082 128.335L65.8358 128.93L61.5049 127.918L59.2541 126.386L58.5866 124.154L55.6839 122.086L55.3734 116.76L53.3865 115.793L52.7501 114.394L52.8742 110.779L48.326 105.899L45.8424 106.167L43.5139 100.989L43.7157 98.6382L40.7819 92.8655L41.1545 85.0545L36.9012 83.4774L33.7656 80.1149L32.5858 75.9044L33.9363 74.491L33.1757 72.7354L32.1201 72.78L27.7116 68.8224L25.6626 69.6556L22.2942 69.4622L19.2827 66.7544L17.4355 66.5758L15.6349 63.4812L12.6389 61.919L5.37421 60.6246L1.88156 61.0263L1.02782 58.0655L1.41589 51.3108L2.3783 49.3767L1.80396 45.9547L0.841553 45.1067L2.90607 45.2257L2.96818 48.1418L6.50739 48.3799L8.37016 50.7752L16.9698 53.0367L25.7713 47.0855L26.8424 48.484L31.0491 49.8825L36.094 47.6062L38.3603 49.5404L38.0499 50.8347L41.7288 50.5818L44.942 51.5787L51.71 47.0111L54.4265 43.5891L54.6904 41.2979L59.5491 31.6271L59.7198 28.9192L62.576 26.7024L68.1643 18.0879L68.5213 16.377L72.6038 12.2855L73.5817 9.81569L79.1855 5.88786L78.9992 0.516846L86 5.91761L88.2198 9.50325L88.2664 11.854L88.9494 12.3152L90.0204 11.4523L90.3465 12.0474L90.6724 23.7863L91.6969 29.5441L95.9036 38.5454L100.033 51.8465L105.186 59.2855L111.815 59.6872L118.148 62.3504L119.343 66.2931L119.095 71.2476L113.817 73.8066L118.21 72.9586L118.831 74.1786L118.567 75.2647L110.759 81.3052L108.943 84.4296L105.605 86.5274L102.594 92.0621L98.0768 97.2695L93.2958 98.5936L90.067 103.027L87.987 103.131L84.5409 106.97L81.2966 113.04L75.3203 119.125L75.0254 125.389L71.9984 128.082L70.5082 128.335ZM106.77 58.4226L104.364 55.1643L104.472 53.855L107.391 52.5755L109.346 56.5331L106.77 58.4226ZM110.635 84.623L109.89 83.1947L111.613 81.5581L114.904 81.7069L116.301 80.591L114.873 83.6113L110.635 84.623Z" fill="#CCCCCC" stroke="white" stroke-width="0.5"/>
</svg>
