<svg width="424" height="282" viewBox="0 0 424 282" fill="none" xmlns="http://www.w3.org/2000/svg">
<path d="M253.4 1.35889L255.682 3.02524L259.361 2.57889L259.454 4.0072L261.333 5.74794L266.315 6.14965L270.103 8.54503L267.588 15.7163L271.826 21.2807L274.403 28.3627L274.698 31.7252L276.126 34.0611L273.611 36.2333L275.194 40.9496L273.114 46.9009L273.565 54.3102L274.931 57.5388L277.725 60.1276L279.479 66.5698L277.616 69.3967L274.76 68.9057L274.543 70.6018L282.319 77.1779L286.169 79.1865L290.081 84.6765L292.984 84.1558L296.647 85.7031L295.964 82.5638L297.128 79.1567L296.942 73.9048L298.215 69.4859L299.798 67.6113L305.029 65.5283L305.883 64.2042L308.367 64.1149L312.76 65.4986L315.663 68.5337L317.091 72.2681L319.916 72.6103L324.045 69.8281L327.196 69.0098L327.879 67.641L326.11 65.5432L325.923 63.4752L327.817 57.8661L334.011 48.5077L333.964 47.496L362.666 47.6002L362.899 60.3656L366.19 63.252L365.569 67.4179L368.409 70.3786L370.055 70.3935L372.911 72.2235L374.293 76.9994L381.495 82.6085L388.605 86.3875L391.678 89.3483L405.944 94.7044L408.039 97.6056L412.23 99.7481L413.938 102.977L416.841 104.152L420.302 102.724L420.395 104.598L423.205 107.083L376.792 202.66L372.43 207.734L373.656 212.882L378.36 216.914L380.471 222.552L378.328 225.245L378.344 229.128L374.494 234.053L376.388 240.242L372.414 254.287L370.536 255.374L296.259 255.85L295.762 254.243L293.605 253.826L290.624 255.433L289.786 258.022L288.73 258.305L283.701 256.103L282.645 251.818L279.448 251.401L277.507 246.536L273.565 245.078L271.5 243.188L269.56 239.618L266.222 237.936L249.473 238.026L247.331 241.834L244.661 242.578L244.801 244.319L240.547 245.435L238.7 247.801L238.623 248.797L240.284 250.508L238.467 253.737L235.27 255.537L235.471 260.402L229.464 259.718L226.158 260.283L224.295 261.875L219.498 260.878L216.782 262.753L215.959 264.003L216.363 266.607L212.42 271.308L210.309 270.639L208.726 267.142L203.851 270.46L198.853 271.591L198.015 273.451L196.121 274.626L190.843 270.639L180.241 270.743L180.257 273.495L177.851 276.188L174.87 277.051L169.81 280.86L125.554 262.813L84.5115 241.73L28.9396 228.638L1.07601 217.509L2.05395 212.197L3.94775 210.114L11.585 204.951L15.8227 204.148L17.344 201.827L17.4682 200.295L14.7672 193.614L17.1888 188.586L21.2558 183.304L21.2713 178.751L22.7925 172.279L23.9257 171.163L33.0066 166.908L34.7917 165.361L35.4747 163.278L38.8742 162.564L46.9306 157.118L53.0311 156.91L64.6888 153.414L69.8579 153.979L72.8538 149.456L74.5458 148.548L77.8677 148.846L78.8611 149.649L82.6177 148.191L85.2721 148.37L85.7223 150.914L88.2214 152.833L92.6144 152.952L94.2288 151.197L106.275 87.9943L108.075 83.6499L106.725 75.8835L104.707 74.3213L102.409 70.2298L103.356 67.4327L102.549 64.7844L94.6324 59.8151L91.6209 56.4229L91.9314 39.2982L97.9698 38.9113L100.686 37.1706L106.119 35.8018L110.279 38.4204L114.145 37.9443L113.384 35.4299L113.85 32.8708L110.838 28.943L109.053 28.0503L106.709 28.8388L102.378 27.9313L96.8366 28.0652L96.7435 13.3358L103.822 11.6397L108.23 12.9341L137.77 13.0234L135.83 11.8331L135.24 10.0477L136.715 7.17624L138.935 7.77137L141.232 11.9968L143.545 12.5324L146.044 11.6248L151.508 5.42062L155.467 3.35256L157.469 4.03695L163.973 15.4187L163.88 25.7442L168.847 24.6283L182.973 35.5489L186.854 35.8613L190.424 34.3735L196.338 30.1184L199.738 29.9547L201.802 31.993L201.771 33.4362L200.048 35.9655L201.523 37.8252L203.587 36.754L206.366 31.7549L209.502 31.4127L210.852 26.9939L218.536 23.2744L220.042 24.0927L221.485 23.6612L223.969 22.1139L225.552 19.7185L228.828 17.9183L231.979 18.7366L236.496 15.0617L237.132 9.18479L238.328 7.816L244.708 6.58111L247.905 4.20061L252.935 3.20377L253.4 1.35889Z" fill="#CCCCCC" stroke="white" stroke-width="0.5"/>
</svg>
