<svg width="76" height="40" viewBox="0 0 76 40" fill="none" xmlns="http://www.w3.org/2000/svg">
<path d="M6.2458 16.6441L5.93542 15.558L1.44929 14.0999L0.611084 12.017L3.65351 8.80327L7.02194 7.67254L12.129 0.858346L13.6813 2.67348L17.9501 2.94128L24.8578 9.10083L30.5858 11.3772L34.4665 10.4101L41.1568 10.6779L44.0441 9.10083L45.8447 9.17523L48.6543 7.52375L54.6307 1.60225L57.7352 1.24517L61.2124 2.50982L67.468 0.307861L75.3692 2.22713L71.0538 9.60671L58.4338 22.5656L53.7148 29.3798L48.5456 33.6647L44.9444 39.3481L44.013 37.3991L32.4174 30.7039L30.3994 27.0588L21.986 22.4912L16.2736 21.0777L6.2458 16.6441Z" fill="#CCCCCC" stroke="white" stroke-width="0.5"/>
</svg>
