<svg width="180" height="96" viewBox="0 0 180 96" fill="none" xmlns="http://www.w3.org/2000/svg">
<path d="M48.2982 68.7578L45.0694 68.6983L45.5817 64.7704L43.2533 62.9999L43.4551 60.6194L42.2598 57.7182L40.5678 56.766L31.875 54.9062L20.4812 54.6235L26.1471 48.5979L26.2557 44.9825L23.9118 42.9739L21.3039 38.5849L18.7116 37.6476L16.9575 35.9663L15.5294 32.4253L12.4248 30.149L9.55311 22.3231L6.6348 20.7162L6.51062 18.9755L7.76797 19.1243L8.41994 18.3506L8.21814 16.7289L4.92729 15.3452L1 11.5513L2.80065 8.96249L2.78513 7.01346L8.23366 5.85296L7.89216 3.8444L6.07598 1.50854L33.9395 12.6374L89.5114 25.7302L130.554 46.8125L174.81 64.8597L179.42 66.7344L173.273 70.7961L168.833 74.9471L166.272 76.2266H162.873L162.795 77.0598L156.586 80.4669L153.667 84.9452L152.721 85.3618L149.725 84.0525L144.99 84.5137L139.666 91.6404L132.51 94.5267L127.9 95.3302L128.024 92.1909L112.268 90.6435L104.367 91.2089L103.342 90.346L99.8186 90.0931L94.2925 92.8158L90.0547 93.7382L87.4469 92.7414L85.2737 90.5989L82.7279 92.3248L83.3023 58.715L85.5531 55.2633L83.7525 55.5609L76.6585 60.917L73.4608 64.458L70.4338 65.4548L69.4248 67.0617L66.6152 68.5346L48.2982 68.7578Z" fill="#CCCCCC" stroke="white" stroke-width="0.5"/>
</svg>
