<svg width="223" height="234" viewBox="0 0 223 234" fill="none" xmlns="http://www.w3.org/2000/svg">
<path d="M154.832 224.543L154.273 223.309L155.313 220.497L154.49 218.949L148.079 214.411L148.172 211.406L147.288 209.576L145.099 210.513L147.194 199.057L148.467 197.748L152.301 198.105L153.885 197.049L153.016 194.921L153.264 190.978L160.963 184.7L163.245 180.117L161.398 176.859L158.883 176.204L154.49 172.529L151.199 172.559L144.292 170.06L136.98 169.003L132.65 171.205L127.713 170.848L127.03 164.956L116.909 155.732L109.505 157.309L107.13 155.464L104.895 155.449L100.952 153.634L97.5833 151.224L96.0621 151.492L89.3097 146.091L83.3644 144.172L77.6985 145.883L75.4632 147.802L67.1896 145.615L66.2427 144.886L65.8391 142.654L68.0743 137.253L63.2157 135.795L55.1748 134.873L49.2296 137.224L42.6168 141.732L41.6234 143.383L36.3922 146.165L33.2565 146.76L28.9723 150.822L25.2002 151.373L20.7141 156.357L16.2901 155.985L13.1389 158.827L12.518 158.47L14.7378 153.366L13.9461 149.781L16.6316 145.704L15.2345 141.256L16.4142 137.447L11.4314 133.549L8.80802 128.401L7.84561 123.164L9.77043 115.159L12.5956 113.047L12.6887 111.648L9.98777 109.907L10.7329 106.158L12.9216 104.03L8.69935 100.37L8.63729 98.9867L10.7484 95.4457L10.4224 93.2289L6.68139 91.5328L6.51066 84.0639L12.8129 79.8832L11.4625 78.1722L8.43548 78.0085L7.75247 76.7737L8.40445 75.3453L12.4404 73.4707L12.3783 72.34L9.46 70.8819L3.90278 69.8851L1.01555 66.969L0.658508 65.6002L3.00248 62.8031L5.36194 57.6255L8.88566 55.7359L7.17813 52.5074L12.161 48.6093L18.0907 45.6039L20.3726 42.4646L23.9894 42.4349L26.2247 44.4285L28.0719 49.2639L30.804 52.9686L37.2925 55.7359L40.0866 54.9623L43.362 55.2301L45.0384 52.7603L46.808 52.2098L49.6642 49.5913L53.0948 48.4754L57.4567 49.5169L59.5523 48.892L64.1626 45.2915L70.2476 35.1446L70.5114 29.6099L67.0343 23.0189L67.1119 21.6352L72.1414 19.1803L75.1683 19.1506L77.4967 19.835L78.6299 21.4864L84.0785 20.0284L86.143 20.5937L88.7974 22.0667L88.8905 23.4652L90.1634 23.8818L99.7565 22.6023L103.373 18.7935L107.611 18.2876L110.079 16.294L113.448 16.3088L114.907 17.3206L117.794 14.6276L117.639 11.0568L121.954 10.7444L123.584 9.76245L126.627 4.6146L133.224 5.23947L137.601 7.30756L139.293 15.0144L142.724 16.3683L143.143 19.344L141.715 21.8435L144.556 22.766L151.774 19.7606L153.745 13.1398L157.114 13.7647L160.824 12.2471L162.531 10.4022L162.407 7.50096L166.334 6.45949L167.529 3.40947L174.934 0.433838L177.247 1.26701L178.535 3.40947L180.646 4.6146L188.951 6.35534L191.404 8.06634L192.847 10.9229L193.949 8.11097L196.185 7.44146L196.914 8.85488L195.952 10.1642L197.442 11.9495L200.702 13.2291L202.627 19.1654L203.465 21.2484L207.951 22.7064L208.261 23.7777L207.221 25.5035L207.547 28.6875L209.534 32.407L213.788 37.0192L213.663 41.6612L212.515 45.3807L213.694 49.4722L212.158 51.1535L208.199 52.6413L206.445 51.5254L203.791 51.5105L202.409 55.4532L208.619 63.2941L208.122 66.5672L209.239 67.9658L216.225 71.849L220.711 70.5397L222.279 71.1348L215.945 84.2722L210 91.994L208.401 95.4606L200.593 104.001L195.44 105.86L196.697 101.873L195.998 99.0016L193.096 98.6297L191.373 95.5648L189.308 101.204L187.585 101.337L186.824 98.7487L186.064 99.4033L187.507 101.918L190.596 102.424L189.882 105.117L188.004 106.827L187.616 109.535L185.132 111.975L185.101 114.49L183.006 113.91L182.68 114.49V117.168L183.844 117.48L184.946 121.75L183.332 125.485L184.217 130.603L182.462 131.004L182.245 132.686L183.161 133.37L185.039 130.811L184.31 127.523L185.583 126.615L185.971 127.419L182.431 144.692L185.614 168.884L187.15 173.973L183.72 183.881L178.985 205.068L179.451 215.111L180.833 217.655L177.355 222.089L173.087 224.038L168.864 229.825L167.871 232.979L154.832 224.543Z" fill="#CCCCCC" stroke="white" stroke-width="0.5"/>
</svg>
