<svg width="104" height="118" viewBox="0 0 104 118" fill="none" xmlns="http://www.w3.org/2000/svg">
<path d="M102.687 47.364L95.0964 49.7297L91.0449 52.7202L85.9224 62.6736L83.268 65.1881L82.4919 68.7737L80.3186 72.4039L77.1674 76.2871L73.5662 76.0193L70.0736 80.6762L69.5458 83.6072L71.5637 83.2948L68.5367 90.2726L69.344 92.2217L66.3636 95.6734L66.1773 97.0571L67.9935 99.1697L67.9624 101.64L70.9583 103.083L71.4861 104.853L67.4036 112.084L63.2745 114.048L60.884 117.455L58.3227 117.529L57.3448 115.089L54.0229 113.527L51.741 110.462L44.4763 106.401L37.6928 105.924L31.8407 107.397L22.8064 106.743L22.8995 104.779L21.7198 102.324L25.8334 93.3226L24.6381 91.5968L18.6307 89.9304L17.0629 85.9579L14.2533 74.3976L13.1667 61.5875L11.5679 59.9956L12.8097 59.1326L13.7255 56.7819L11.2418 49.3428L11.9869 46.9623L10.7606 41.2045L11.9404 38.0503L9.8292 35.6847L1.01227 14.6172L1.29167 12.445L5.60703 5.5713L5.21895 3.4586L6.22793 2.25348L16.6904 1.92616L24.3897 0.304443L35.8766 1.47982L58.3227 13.8584L60.201 14.156L68.2884 20.7024L72.2778 21.7736L76.0654 26.1032L77.9591 27.0107L82.5539 32.6793L89.0114 37.2618L92.8921 41.7103L100.685 44.3438L102.687 47.364Z" fill="#CCCCCC" stroke="white" stroke-width="0.5"/>
</svg>
