<svg width="55" height="84" viewBox="0 0 55 84" fill="none" xmlns="http://www.w3.org/2000/svg">
<path d="M0.674011 71.0427L1.79166 65.4188L1.12419 60.1519L3.79412 57.087L12.6421 56.6555L14.1479 51.835L17.2369 46.5384L17.6094 43.9793L22.5923 38.9357L23.4305 34.5168L22.9804 30.9015L19.3015 24.8312L17.7957 25.1287L15.8554 23.6558L16.5229 22.8375L21.5678 23.269L23.5392 22.287L23.2753 19.728L20.9158 18.5972L21.4281 13.4494L18.0906 10.4291L19.9069 7.55765L23.2753 5.60861L27.1405 6.84348L27.1716 5.63835L24.5793 2.26103L30.0433 2.02297L33.0236 0.639269L35.4763 0.520264L40.8317 2.54367L53.8709 10.9796L51.946 20.2189L53.25 34.7103L52.7688 38.3852L50.4559 43.1164L45.3334 46.0772L40.0245 58.8724L37.3701 57.6672L36.9199 59.5717L39.0155 60.3453L36.0041 66.6537L30.6487 72.3669L27.3889 72.9471L26.147 74.7771L25.4019 78.7049L22.4836 83.3916L19.9689 81.8145L15.3276 82.365L4.70997 79.181L3.66991 72.1734L0.674011 71.0427Z" fill="#CCCCCC" stroke="white" stroke-width="0.5"/>
</svg>
