<svg width="178" height="170" viewBox="0 0 178 170" fill="none" xmlns="http://www.w3.org/2000/svg">
<path d="M143.854 85.7369L142.503 84.2342L143.652 75.5454L140.811 72.5995L122.261 72.5846L121.672 78.1342L120.243 80.8569L121.051 85.7072L143.854 85.7369L143.031 87.9984L143.512 90.3343L140.206 96.7468L141.525 98.547L145.049 100.585L147.61 108.262L138.98 116.773L138.312 119.957L140.004 121.608L141.401 120.909L144.583 122.665L144.599 125.209L142.674 129.36L144.521 134.508L139.725 137.572L137.924 137.87L135.844 140.875L128.253 144.952L127.167 143.806L120.414 141.039L118.66 141.887L107.654 141.723L104.534 140.399L98.1234 144.327L93.6062 148.672L91.0605 146.559L88.701 146.112L83.7492 148.552L77.9902 147.63L70.6789 149.862L65.4012 160.068L62.1258 160.455L60.6667 161.556L58.1209 164.68L57.2361 167.507L58.0899 168.921L56.1961 168.578L51.6944 164.576L46.8047 163.669L44.29 161.363L39.0278 160.663L33.8276 158.67L26.9665 154.176L18.7704 150.368L14.4551 150.606L8.55636 149.564L11.5523 142.839L8.05966 141.5L5.26552 142.214L4.47388 139.953L4.58251 133.481L3.10786 130.208L2.82841 125.105L0.391357 120.79L1.01226 115.716L4.97058 109.988L5.56045 105.659L12.7631 100.63L14.7035 97.6246L15.9918 93.2206L19.2516 89.5457L19.3758 87.2545L22.0923 85.8113L24.2655 81.9132L28.3791 81.7199L33.098 80.0237L37.2737 72.3615L38.857 65.1605L44.3987 60.7714L46.0596 60.3845L47.969 61.3963L52.0049 58.1826L55.125 49.5533L54.3644 46.6669L55.2647 42.5903L57.7484 37.9929L57.5621 30.2861L59.4403 29.1256L64.1438 20.4962L64.5008 14.8574L66.5498 12.2389L66.8448 9.6203L68.7075 4.32368L72.3865 0.767822L72.3399 3.31197L70.4461 6.10907L69.6389 9.59056L76.7794 11.7181L82.8799 12.3132L93.9943 16.985L94.9722 16.6428L97.5025 7.80516L101.616 2.80612L105.016 7.55226L107.685 17.6843L109.455 17.7586L111.954 14.3516L116.239 14.8574L123.27 14.0689L122.743 17.4909L127.601 19.6779L132.801 20.6896L133.873 20.5706L134.664 15.6608L135.518 15.7055L138.576 19.9606L145.251 15.5269L154.689 14.0391L161.364 10.4088L169.684 8.29616L173.906 11.9562L171.717 14.0986L170.972 17.8479L173.658 19.5887L173.565 20.9872L170.739 23.0851L168.815 31.0895L169.777 36.3266L172.416 41.4744L177.399 45.3725L176.203 49.1813L177.601 53.6447L174.915 57.7214L173.363 59.2241L168.349 58.7182L166.952 56.0997L163.195 53.8977L161.379 56.1145L162.279 61.7236L161.395 62.527L156.458 61.0243L154.068 61.7831L152.95 66.5144L154.068 66.6631L154.828 68.389L152.81 70.829L152.873 73.6559L154.347 74.8461L155.418 81.1842L149.38 83.3118L145.825 85.5584L143.854 85.7369Z" fill="#CCCCCC"/>
<path d="M143.854 85.7369L142.503 84.2342L143.652 75.5454L140.811 72.5995L122.261 72.5846L121.672 78.1342L120.243 80.8569L121.051 85.7072L143.854 85.7369ZM143.854 85.7369L143.031 87.9984L143.512 90.3343L140.206 96.7468L141.525 98.547L145.049 100.585L147.61 108.262L138.98 116.773L138.312 119.957L140.004 121.608L141.401 120.909L144.583 122.665L144.599 125.209L142.674 129.36L144.521 134.508L139.725 137.572L137.924 137.87L135.844 140.875L128.253 144.952L127.167 143.806L120.414 141.039L118.66 141.887L107.654 141.723L104.534 140.399L98.1234 144.327L93.6062 148.672L91.0605 146.559L88.701 146.112L83.7492 148.552L77.9902 147.63L70.6789 149.862L65.4012 160.068L62.1258 160.455L60.6667 161.556L58.1209 164.68L57.2361 167.507L58.0899 168.921L56.1961 168.578L51.6944 164.576L46.8047 163.669L44.29 161.363L39.0278 160.663L33.8276 158.67L26.9665 154.176L18.7704 150.368L14.4551 150.606L8.55636 149.564L11.5523 142.839L8.05966 141.5L5.26552 142.214L4.47388 139.953L4.58251 133.481L3.10786 130.208L2.82841 125.105L0.391357 120.79L1.01226 115.716L4.97058 109.988L5.56045 105.659L12.7631 100.63L14.7035 97.6246L15.9918 93.2206L19.2516 89.5457L19.3758 87.2545L22.0923 85.8113L24.2655 81.9132L28.3791 81.7199L33.098 80.0237L37.2737 72.3615L38.857 65.1605L44.3987 60.7714L46.0596 60.3845L47.969 61.3963L52.0049 58.1826L55.125 49.5533L54.3644 46.6669L55.2647 42.5903L57.7484 37.9929L57.5621 30.2861L59.4403 29.1256L64.1438 20.4962L64.5008 14.8574L66.5498 12.2389L66.8448 9.6203L68.7075 4.32368L72.3865 0.767822L72.3399 3.31197L70.4461 6.10907L69.6389 9.59056L76.7794 11.7181L82.8799 12.3132L93.9943 16.985L94.9722 16.6428L97.5025 7.80516L101.616 2.80612L105.016 7.55226L107.685 17.6843L109.455 17.7586L111.954 14.3516L116.239 14.8574L123.27 14.0689L122.743 17.4909L127.601 19.6779L132.801 20.6896L133.873 20.5706L134.664 15.6608L135.518 15.7055L138.576 19.9606L145.251 15.5269L154.689 14.0391L161.364 10.4088L169.684 8.29616L173.906 11.9562L171.717 14.0986L170.972 17.8479L173.658 19.5887L173.565 20.9872L170.739 23.0851L168.815 31.0895L169.777 36.3266L172.416 41.4744L177.399 45.3725L176.203 49.1813L177.601 53.6447L174.915 57.7214L173.363 59.2241L168.349 58.7182L166.952 56.0997L163.195 53.8977L161.379 56.1145L162.279 61.7236L161.395 62.527L156.458 61.0243L154.068 61.7831L152.95 66.5144L154.068 66.6631L154.828 68.389L152.81 70.829L152.873 73.6559L154.347 74.8461L155.418 81.1842L149.38 83.3118L145.825 85.5584L143.854 85.7369Z" stroke="white" stroke-width="0.5"/>
</svg>
