<svg width="170" height="216" viewBox="0 0 170 216" fill="none" xmlns="http://www.w3.org/2000/svg">
<path d="M100.833 45.809L96.9518 49.7517L96.8897 51.8942L105.691 43.5029L107.29 34.085L114.399 31.2879L115.114 31.4665L114.912 34.5611L112.708 37.3433L107.725 39.947L107.678 41.0182L108.811 41.1968L109.51 39.9916L111.295 39.5304L111.109 41.9704L117.644 34.576L118.979 35.067L122.984 33.6833L129.255 34.3231L128.541 30.7374L129.488 30.3952L133.244 30.5143L141.704 32.7906L145.042 34.8438L147.215 34.8884L152.12 38.7865L157.801 39.3668L158.671 40.4975L165.501 41.4051L165.904 40.066L164.864 39.3668L167.457 38.8014L168.341 38.965L168.202 39.5899L167.488 41.7175L168.823 43.5922L168.233 45.8685L159.043 55.1525L152.648 55.5988L148.115 60.6574L148.177 63.3355L146.811 66.0582L140.416 73.5716L140.975 76.4282L142.884 77.6631L143.474 79.5675L141.27 86.0246L143.722 90.2054L144.421 98.2545L137.73 105.649L137.467 109.339L138.444 115.9L143.971 121.033L142.154 130.198L140.276 132.147L134.424 132.221L130.652 133.501L128.292 133.664L122.844 130.644L115.61 132.117L107.787 140.255L104.154 141.609L99.6993 145.418L95.9894 146.251L93.3505 148.528L83.4003 150.67L80.0939 153.571L76.9894 165.876L74.2884 170.265L71.696 177.436L69.0572 179.519L67.924 182.495L69.7402 190.127L72.4256 194.68L71.1838 197.536L70.982 206.999L69.1969 210.644L68.7157 215.078L64.509 212.221L59.107 211.819L57.0114 208.844L55.4747 204.589L52.1683 202.178L51.9509 199.723L54.4967 197.031L54.3726 196.242L48.3497 193.341L46.1454 186.943L41.1626 184.875L45.6487 180.04L45.0743 178.091L47.2631 171.976L50.2279 170.354L55.4902 169.833L54.8848 167.825L55.7541 160.386L52.96 158.585L46.3317 159.984L42.9943 161.978L33.3856 150.03L32.0196 150.135L30.7157 147.992L31.6626 146.222L31.1037 144.407L28.3251 144.451L25.3292 142.472L25.6086 141.416L28.3407 140.434L31.0572 137.399L31.4918 130.019L34.2394 120.854L32.8578 116.912L33.1838 111.377L31.4608 103.938L30.1569 102.405L22.9853 100.233L21.5106 97.1833L15.1618 97.4064L10.8464 95.1598L6.46894 95.8591L1.56371 99.5638L0.803101 99.4447L23.6372 81.8439L27.2851 82.1861L29.1013 80.8173L32.1748 75.8777L34.5809 74.137L35.5433 69.8521L41.0694 65.716L44.7173 54.1259L47.7598 51.8347L51.33 47.0588L51.7492 42.4465L52.9755 41.2414L51.3611 38.8907L57.0735 34.2933L57.6479 28.3123L60.9232 24.9201L62.4444 18.0315L61.777 17.2429L60.2402 17.481L59.8987 15.8295L61.6683 15.6064L62.5531 14.5054L63.4068 5.92068L65.3317 3.7187L66.6822 3.36163L68.0327 0.653809L70.1127 2.11187L70.8113 4.84945L72.6585 5.02799L73.8538 3.00456L74.8006 7.36386L76.3374 7.42337L76.8962 5.2958L80.839 6.02482L81.6152 7.05142L79.3954 9.5807L80.4665 11.4405L83.1054 6.11409H83.8039L84.4248 8.49459L82.6552 11.3214L82.7794 15.3534L83.8971 16.0229L86.2876 14.4458L85.7753 12.0653L87.8243 9.93777L89.4542 9.56582L92.7606 10.4436L95.089 8.79216L95.1667 10.1609L92.8537 12.7497L93.7696 13.6127L95.8652 12.1695L96.7655 13.3449L96.5482 15.1451L99.0784 17.7488L100.413 17.0942L102.866 18.091L104.061 21.6618L103.891 23.0752L100.491 27.1369L100.056 29.443L103.704 25.3962L104.993 25.3515L106.343 26.5567L107.15 29.3686L106.731 31.1987L105.225 31.4813L101.826 35.0521L99.1716 44.9461L100.833 45.809Z" fill="#CCCCCC" stroke="white" stroke-width="0.5"/>
</svg>
