<svg width="177" height="171" viewBox="0 0 177 171" fill="none" xmlns="http://www.w3.org/2000/svg">
<path d="M174.194 70.8433L173.138 75.0984L168.031 76.6457L163.048 82.1656L160.347 83.579L159.136 90.4378L153.269 97.1925L153.626 101.477L148.643 108.321L148.752 111.386L146.516 112.919L141.254 120.864L138.227 123.646L126.492 130.386L122.083 135.98L111.962 140.577L108.299 151.051L102.447 154.563L99.451 167.566L95.7566 169.887L91.7982 166.42L86.5049 163.609L76.679 168.384L72.674 169.024L67.4428 167.373L66.7133 161.02L64.8195 158.565L64.4625 154.89L65.2541 152.896L64.121 151.066V146.796L61.808 139.789L62.6773 134.299L60.2402 132.677L59.402 128.273L56.8407 125.565L48.2876 125.208L44.469 122.292L43.5997 120.075L41.2092 120.566L37.8407 124.643L36.2884 123.75L31.942 125.193L25.2672 123.438L19.8963 123.78L14.2149 122.723L13.4698 121.369L10.3807 121.176L8.99921 121.95L5.11849 120.64L6.53108 109.824L5.86359 106.283L8.3162 101.998L9.24759 93.0266L8.14545 86.9861L6.96572 85.5578L5.53762 86.391L4.54416 81.5407L1.43958 75.753L0.896271 73.0304L8.33174 68.2991L1.81211 62.5561L10.1634 45.5653L11.902 45.476L11.4673 42.307L10.3187 42.1136L16.357 25.0186L11.5605 16.3149L11.6071 13.4731L17.6144 17.6688L26.3383 14.7378L29.5205 11.7621L32.6561 7.37307L32.7958 5.63236L34.969 3.47501L42.6062 3.69817L45.183 2.93941L47.2786 1.07965L50.4142 0.350586L52.3857 0.648167L53.5654 2.35915L57.8963 4.21891L62.9722 5.43893L64.6022 8.23603L73.1863 12.4614L80.2026 11.5241L85.1389 8.16161L88.9265 8.26577L91.3946 9.81311L92.2329 12.2234L98.6438 11.0629L107.368 2.12109L109.448 1.92767L107.538 11.7621L104.744 12.8036L102.167 17.0141L102.105 18.4871L104.123 18.6507L106.824 20.5402L124.583 20.4807L124.474 26.9527L125.266 29.2142L128.06 28.5001L131.552 29.8391L128.556 36.564L134.455 37.6055L138.77 37.3674L146.967 41.1762L153.828 45.6695L159.028 47.6631L164.29 48.3624L166.805 50.6685L171.694 51.576L176.196 55.5783L175.296 55.9502L173.759 62.1693L174.675 66.9452L174.194 70.8433Z" fill="#CCCCCC" stroke="white" stroke-width="0.5"/>
</svg>
