<svg width="278" height="254" viewBox="0 0 278 254" fill="none" xmlns="http://www.w3.org/2000/svg">
<path d="M22.2614 149.467L30.9231 143.516L33.9501 134.247L35.3937 132.64L38.607 131.242L40.3145 126.644L42.8913 123.654L43.8692 117.777L43.031 112.51L40.656 107.541L38.3586 106.827L37.6911 101.991L37.9084 100.027L40.0195 98.4205L42.4566 94.7009L40.2679 89.3597L36.8839 88.5563L31.4509 88.6902L29.5571 87.0387L29.9297 86.2055L3.29242 86.1311L4.68947 72.7408L2.36103 68.6493L1.94191 66.0307L3.54076 59.6034L2.95091 56.7319L4.41007 54.2472L2.88881 48.8018L1.1813 46.6743L4.36348 37.1374L3.43212 35.2925L1.2589 33.8493L75.5359 33.3732L77.4141 32.2871L81.388 18.2421L79.4942 12.0528L83.3439 7.12814L83.3284 3.24494L85.4705 0.552002L91.0898 8.19937L93.8374 16.7097L97.0816 21.9914L96.7246 25.6217L98.6029 32.4656L105.635 38.2086L110.881 40.7379L111.533 44.5021L116.811 45.5138L118.503 48.6679L120.63 47.9984L126.358 50.2153L179.198 53.8158L276.945 58.9934L275.067 63.3229L273.359 65.1827L272.676 69.8544L268.423 79.3913L267.523 88.1992L264.604 97.1112L264.698 98.3907L266.855 100.384L265.256 103.747L266.964 107.094L266.25 114.355L267.057 115.218L267.74 119.756L266.591 123.862L268.113 128.831L270.845 129.62L270.55 132.239L268.501 134.857L268.144 140.496L263.44 149.125L261.562 150.286L261.748 157.993L259.265 162.59L258.364 166.667L259.125 169.553L256.005 178.182L251.969 181.396L250.06 180.384L248.399 180.771L242.857 185.16L241.274 192.361L237.098 200.023L232.379 201.72L228.265 201.913L226.092 205.811L223.376 207.254L223.252 209.545L219.992 213.22L218.703 217.624L216.763 220.63L209.56 225.658L208.97 229.988L205.012 235.716L204.391 240.79L206.828 245.104L207.108 250.207L208.582 253.481L190.824 253.54L188.123 251.651L186.105 251.487L186.167 250.014L188.744 245.803L191.538 244.762L193.448 234.928L191.368 235.121L182.644 244.063L176.233 245.223L175.395 242.813L172.926 241.266L169.139 241.161L164.203 244.524L157.186 245.461L148.602 241.236L146.972 238.439L141.896 237.219L137.565 235.359L136.386 233.648L134.414 233.35L131.279 234.079L129.183 235.939L126.606 236.698L118.969 236.475L116.796 238.632L116.656 240.373L113.52 244.762L110.338 247.738L101.614 250.669L95.607 246.473L94.0857 244.286L94.924 243.23L91.1364 240.031L88.3422 240.894L79.2924 235.136L77.2279 221.031L80.3635 216.97L80.8136 211.509L79.3235 211.599L78.1127 212.729L36.4182 211.122L34.7883 192.302L26.4525 183.181L34.0277 183.092L33.4844 171.859L28.6257 161.013L30.9852 156.713L28.7499 152.354L23.9223 150.806L22.2614 149.467Z" fill="#CCCCCC" stroke="white" stroke-width="0.5"/>
</svg>
