<svg width="272" height="213" viewBox="0 0 272 213" fill="none" xmlns="http://www.w3.org/2000/svg">
<path d="M262.832 90.5431L257.476 88.5197L255.024 88.6387L252.043 90.0224L246.579 90.2605L249.172 93.6378L249.141 94.8429L245.275 93.6081L241.907 95.5571L240.091 98.4286L243.428 101.449L242.916 106.597L245.275 107.727L245.539 110.286L243.568 111.268L238.523 110.837L237.855 111.655L239.796 113.128L241.302 112.831L244.98 118.901L245.431 122.516L244.592 126.935L239.609 131.979L239.237 134.538L236.148 139.834L234.642 144.655L225.794 145.086L223.124 148.151L223.792 153.418L222.674 159.042L218.747 162.539L215.953 163.684L217.101 164.726L210.489 179.247L210.349 180.363L212.584 180.556L212.708 182.237L194.019 190.435L191.892 190.733L191.163 189.795L187.235 189.394L181.895 191.119L175.578 190.881L164.929 195.821L160.132 195.657L150.803 199.481L148.863 200.567L145.448 200.894L137.764 205.254L130.437 205.507L130.825 203.528L128.978 204.019L128.993 209.033L127.829 210.491L125.811 210.967L124.927 210.327L119.323 211.815L119.028 211.026L114.169 211.012L111.018 206.087L112.912 205.031L112.105 202.486L106.532 199.421L105.43 197.026L106.252 194.705L106.144 185.198L109.031 181.151L110.195 176.018L104.095 173.504L98.3979 174.649L97.1561 170.424L95.1381 167.761L94.5638 164.473L92.8562 162.449L93.1512 159.563L95.6038 155.709L94.9829 153.403L91.1643 150.696L92.4992 145.667L92.1888 144.119L87.1128 139.135L83.7753 140.519L81.2141 139.358L77.5196 139.522L76.6659 142.587L72.3505 143.599L68.2835 140.802L66.7157 142.661L54.018 143.673L52.5589 146.158L52.978 149.937L52.3415 150.591L50.4943 149.818L50.4788 145.682L49.5319 143.673L48.259 143.881L46.5825 146.961L44.7819 147.407L42.9036 144.283L42.6087 140.816L36.6168 137.528L28.4208 138.6L17.8031 137.052L13.9535 134.538L11.625 135.445L9.40524 137.96L6.42487 138.51L1.19367 141.843L1.67488 137.945L0.759033 133.169L2.29578 126.95L3.19609 126.578L5.08988 126.92L4.23614 125.507L5.12096 122.68L7.66669 119.556L9.12584 118.455L12.4012 118.068L17.679 107.861L24.9902 105.63L30.7492 106.552L35.701 104.112L38.0605 104.558L40.6062 106.671L45.1234 102.327L51.5344 98.3988L54.6545 99.723L65.6602 99.8866L67.4142 99.0386L74.1667 101.806L75.2533 102.952L82.844 98.8749L84.9241 95.8695L86.7247 95.5719L91.5213 92.507L89.6741 87.3592L91.5989 83.2082L91.5834 80.664L88.4012 78.9084L87.0041 79.6077L85.3121 77.9562L85.9796 74.7723L94.6103 66.262L92.0491 58.5849L88.5253 56.5466L87.2059 54.7463L90.5123 48.3338L90.0311 45.998L90.8538 43.7365L92.8252 43.5579L96.3799 41.3113L102.418 39.1838L101.347 32.8456L99.8726 31.6554L99.8105 28.8286L101.828 26.3885L101.068 24.6627L99.9502 24.5139L101.068 19.7826L103.458 19.0239L108.395 20.5265L109.279 19.7232L108.379 14.1141L110.195 11.8972L113.952 14.0992L115.349 16.7177L120.363 17.2236L121.915 15.7209L122.707 19.3066L120.487 24.4247L121.108 24.7668L124.275 21.9251L128.699 22.297L133.185 17.3277L136.941 16.7624L141.226 12.7155L144.361 12.1055L149.592 9.33819L150.586 7.68673L157.214 3.17861L163.144 0.827881L171.185 1.75032L176.043 3.22329L173.808 8.62402L174.212 10.8409L175.159 11.5848L183.432 13.757L185.683 11.8377L191.349 10.1267L197.294 12.046L204.047 17.4616L205.568 17.1938L208.936 19.6041L212.864 21.4192L215.099 21.4341L217.474 23.279L224.878 21.7168L234.999 30.9412L235.682 36.833L240.619 37.1901L244.949 34.9733L252.276 36.0296L259.184 38.544L262.475 38.4994L266.868 42.1743L269.382 42.8438L271.245 46.1021L268.963 50.6846L261.264 56.9632L261.031 60.9059L261.9 63.0483L260.317 64.1047L256.467 63.7476L255.195 65.0569L253.099 76.513L255.288 75.5757L256.188 77.4057L256.079 80.4111L262.506 84.9638L263.328 86.5111L262.288 89.3082L262.832 90.5431Z" fill="#CCCCCC" stroke="white" stroke-width="0.5"/>
</svg>
