<svg width="162" height="53" viewBox="0 0 162 53" fill="none" xmlns="http://www.w3.org/2000/svg">
<path d="M77.6111 49.0166L75.7017 43.0951L72.4264 41.8156L70.9518 40.0302L71.8986 38.706L71.1691 37.3075L68.9493 37.977L67.8316 40.789L66.388 37.9473L63.9354 36.2363L55.6307 34.4955L53.5351 33.2904L52.2467 31.1479L49.9338 30.3148L42.5294 33.3053L41.3341 36.3553L37.4224 37.3968L37.5465 40.298L35.839 42.1429L32.129 43.6754L28.7606 43.0505L26.7892 49.6564L19.5711 52.6766L16.7148 51.7542L18.1429 49.2547L17.7394 46.279L14.3088 44.9251L12.6013 37.2182L8.23939 35.1651L1.62659 34.5253L5.69362 32.6358L9.58988 28.7972L14.6503 26.4018L20.6887 20.644L21.8374 18.0254L21.9305 14.6481L18.9657 11.4939L19.0743 8.2356L18.0498 5.14094L19.0277 3.98045L21.8064 3.74239L30.8407 4.39703L36.6928 2.92411L43.4762 3.4002L50.7409 7.46193L53.0228 10.5268L56.3448 12.089L57.3227 14.5291L59.8839 14.4547L62.2745 11.0476L66.4036 9.08366L69.1977 12.0593L70.7344 12.5503L75.1119 11.1071L76.0122 13.9637L77.2075 14.4547L83.8203 12.6693L90.3709 7.43219L94.2982 5.67655L95.7418 3.42996L101.485 0.945312L106.918 3.80192L107.694 5.86998L102.867 7.90828L102.354 9.76805L103.472 12.5503L99.2189 17.7874L102.246 16.984L104.015 17.46L104.466 21.9681L108.424 24.5421L113.065 23.0542L115.828 20.7779L116.449 20.0637L115.828 18.1742L118.048 16.0169L120.873 15.8681L124.226 13.6066L133.633 13.562L134.875 11.8807L139.765 11.241L142.714 9.70854L143.413 7.03047L145.71 5.12607L149.296 3.5341L154.682 4.23337L158.563 7.29827L159.929 7.64048L160.783 9.45562L158.64 12.8329L160.457 16.4186L152.369 39.2268L144.468 37.3075L138.212 39.5095L134.735 38.2448L131.631 38.6019L125.654 44.5234L122.845 46.1749L121.044 46.1005L118.157 47.6776L111.467 47.4098L107.586 48.3768L101.858 46.1005L94.9501 39.9409L90.6814 39.6731L89.1291 37.858L84.022 44.6722L80.6535 45.8029L77.6111 49.0166Z" fill="#CCCCCC" stroke="white" stroke-width="0.5"/>
</svg>
