<svg width="160" height="108" viewBox="0 0 160 108" fill="none" xmlns="http://www.w3.org/2000/svg">
<path d="M146.87 88.0152L138.736 87.9705L135.523 88.9822L134.172 88.2978L131.735 89.1459L124.44 94.4425L120.295 93.282L113.837 88.8335L104.632 90.1576L99.4478 89.1905L97.0728 90.1576L95.0237 93.6391L92.121 95.0972L86.5793 94.4872L83.4747 96.1981L81.286 99.7094L82.6054 104.158L78.3987 106.762L76.3342 103.95L63.9003 103.503L59.6005 100.2L52.9878 99.6648L44.7762 97.1652L36.9682 97.9686L33.3358 95.1121L31.6904 94.755L24.1307 95.2608L23.7892 93.4606L19.8619 87.2415L19.893 83.3881L18.3562 79.1032L13.0474 75.577L11.3554 77.2583L8.06455 77.0946L4.69611 79.0734L2.42979 77.4666L1.1569 77.5558L0.72226 74.2827L5.30148 66.8138L4.66508 63.3472L8.01798 53.4384L7.62991 50.0163L9.61684 46.4754L7.50575 41.268L9.75658 38.8875L13.451 36.5665L16.4469 23.563L22.299 20.0518L25.9624 9.57754L36.0834 4.9802L41.1438 1.57309L47.0891 2.54021L58.3897 2.808L61.9445 0.442383L74.0678 4.34045L81.7672 3.71555L85.6945 6.45312L91.143 7.6434L93.2231 10.3661L96.5605 9.96439L100.146 10.991L108.389 11.1844L112.999 9.91976L114.753 12.2259L120.326 16.4364L121.708 19.0549L121.723 23.1316L120.869 25.1996L121.459 27.9372L123.477 30.1838L122.794 33.6355L125.107 38.099L128.801 41.2382L130.152 45.4934L131.471 46.5795L129.112 51.3108L129.609 54.3459L132.108 55.2237L141.111 54.2566L146.808 54.7476L149.307 56.6223L147.708 58.1993L146.637 63.1091L147.181 64.2696L148.842 65.0582L151.558 59.6871L156.06 60.2972L155.439 63.1984L156.572 68.1082L158.776 68.9711L159.025 70.9351L156.929 72.4526L155.982 74.6546L155.128 74.476L155.547 71.5897L154.212 71.3219L151.449 70.459L150.177 72.3931L150.984 73.5834L149.385 75.1605L143.61 73.747L143.859 75.6365L146.358 76.4697L148.531 76.0978L152.257 77.7046L150.751 78.7163L148.36 82.8524L142.679 84.8461L142.369 85.5156L146.948 85.2181L146.87 88.0152Z" fill="#CCCCCC" stroke="white" stroke-width="0.5"/>
</svg>
