<svg width="137" height="190" viewBox="0 0 137 190" fill="none" xmlns="http://www.w3.org/2000/svg">
<path d="M106.992 3.81846L113.574 4.41357L115.607 6.5709L111.292 13.4446L111.012 15.6168L119.829 36.6843L121.94 39.0499L120.761 42.2041L121.987 47.9619L121.242 50.3424L123.725 57.7815L122.81 60.1322L121.568 60.9952L123.167 62.5872L124.253 75.3972L127.063 86.9576L128.631 90.93L134.638 92.5964L135.833 94.3223L131.72 103.324L132.9 105.778L132.806 107.742L130.028 107.98L129.05 109.141L130.074 112.236L129.966 115.494L132.93 118.648L132.837 122.025L131.689 124.644L125.65 130.402L120.59 132.797L116.694 136.636L112.627 138.525L109.6 143.673L107.97 144.67L103.639 144.967L103.81 148.538L100.922 151.216L99.4632 150.219L96.1103 150.205L93.6421 152.198L89.4044 152.704L85.7876 156.513L76.1944 157.778L74.9216 157.361L74.8284 155.962L72.174 154.504L70.1095 153.924L64.6454 155.382L63.5122 153.731L61.1838 153.046L58.1568 153.076L53.1274 155.531L53.0343 156.915L56.5114 163.521L56.2475 169.055L50.1625 179.202L45.5523 182.803L43.4567 183.428L39.0792 182.386L35.6642 183.502L32.808 186.12L31.0384 186.686L29.3619 189.156L26.0865 188.888L23.2925 189.661L16.8039 186.909L14.0563 183.204L12.2091 178.369L9.97384 176.375L6.35699 176.405L1.79326 176.093L2.27446 171.659L4.05963 168.014L4.26139 158.551L5.48771 155.709L2.80223 151.157L0.986084 143.524L2.11927 140.549L4.75813 138.466L7.35047 131.294L10.0514 126.905L13.156 114.601L16.4624 111.7L26.397 109.557L29.0359 107.281L32.7459 106.448L37.1854 102.624L40.8178 101.27L48.6413 93.132L55.8595 91.6591L61.3235 94.6793L63.6675 94.5305L67.4551 93.251L73.2916 93.1766L75.1699 91.2276L76.9861 82.0626L71.4599 76.9446L70.4975 70.3833L70.7614 66.6935L77.4518 59.2842L76.7532 51.2351L74.3006 47.0692L76.5049 40.6121L75.915 38.7226L74.0057 37.4728L73.4624 34.6162L79.8578 27.1028L81.2238 24.38L81.1617 21.7169L85.6944 16.6434L92.0899 16.1971L101.279 6.91311L101.885 4.63675L100.55 2.77698L101.264 0.634521L106.992 3.81846Z" fill="#CCCCCC" stroke="white" stroke-width="0.5"/>
</svg>
