<svg width="98" height="54" viewBox="0 0 98 54" fill="none" xmlns="http://www.w3.org/2000/svg">
<path d="M94.5629 36.2983L90.6822 33.2334L85.2958 32.5341L81.71 34.1261L79.4125 36.0305L78.714 38.7086L75.7647 40.241L70.875 40.8808L69.6332 42.562L60.2263 42.6066L56.8734 44.8681L54.0482 45.0169L51.8285 47.1742L52.4493 49.0638L51.8285 49.7779L49.0653 52.0543L44.424 53.5421L40.4657 50.9682L40.0155 46.4601L38.2459 45.984L35.219 46.7874L39.4722 41.5503L38.3545 38.7681L38.8668 36.9083L43.6944 34.87L42.9182 32.8019L37.4852 29.9453L31.7419 32.43L30.2982 34.6766L26.3709 36.4322L19.8203 41.6693L13.2075 43.4547L12.0122 42.9637L11.1119 40.1071L6.73443 41.5503L5.19768 41.0593L2.40358 38.0837L6.4861 30.8529L5.95828 29.0824L2.96238 27.6392L2.99346 25.1695L1.17731 23.0568L1.36357 21.6731L4.34394 18.2214L3.53672 16.2723L6.5637 9.29447L7.44851 8.61006L10.4444 11.0501L16.3121 12.5825L24.3995 7.37519L25.1912 4.41443L38.4011 1.00732L39.2239 1.66197L39.2393 3.43247L34.598 8.20837L33.3251 12.2255L31.0433 13.624L30.9191 16.1831L36.3987 16.9567L37.8268 19.6943L42.7165 17.8196L48.491 18.147L49.8726 19.8877L49.0653 22.179L50.3538 23.2799L54.0016 21.8963L54.7777 20.7953L55.6315 18.995L54.6535 15.4838L55.3987 14.606L56.9665 15.0821L55.0262 11.6452L55.5074 9.44326L58.3325 7.4347L60.4746 7.3603L61.9338 10.1574L68.0653 11.2733L77.1152 10.693L84.3023 12.7759L92.7933 12.1362L92.933 15.7069L95.1838 22.2385L94.3766 26.568L96.0687 23.2353L96.0841 26.1812L97 27.6839L96.5808 35.3907L96.022 36.2834L94.5629 36.2983Z" fill="#CCCCCC" stroke="white" stroke-width="0.5"/>
</svg>
