<svg width="314" height="289" viewBox="0 0 314 289" fill="none" xmlns="http://www.w3.org/2000/svg">
<path d="M212.945 287.994L115.198 282.816L62.3578 279.216L56.6299 276.999L54.5033 277.668L52.8113 274.514L47.5335 273.502L46.8815 269.738L41.6348 267.209L34.603 261.451L32.7247 254.622L33.0817 250.992L29.8374 245.695L27.1054 237.185L21.4861 229.537L19.3905 223.899L14.6871 219.867L13.4297 214.734L17.7917 209.66L64.2051 114.083L61.3954 111.598L61.3023 109.724L57.8252 111.137L54.9224 109.977L53.2149 106.748L49.0392 104.591L46.9436 101.704L32.6781 96.3483L29.6046 93.3875L22.4951 89.6085L15.2925 83.9994L13.9109 79.2235L11.0547 77.3935L9.40932 77.3786L6.56863 74.4328L7.18954 70.2669L3.89869 67.3805L3.65032 54.6151L1.18219 29.3668L3.68137 32.0152L5.10948 32.4317L7.96568 30.1703L12.1724 30.5125L13.4297 28.9503L12.5915 26.2573L15.3701 25.7217L17.5588 23.2966L21.6569 24.7993L24.5752 24.8439L25.4134 22.5824L30.5825 20.1721L33.6405 20.7524L36.1863 20.2168L38.6699 15.9319L40.9363 14.2953L43.2802 14.816L46.5555 13.1348L48.884 15.4409L52.0351 16.155L54.5343 16.527L57.9804 15.0541L61.799 14.935L74.0311 17.2263L75.5833 15.9319L75.5368 12.5397L72.3235 8.82011L70.3987 7.88279L71.1593 5.38326L74.1087 1.3364L80.1471 4.4013L98.1846 0.934692L100.622 3.4491L102.888 3.1069L103.85 3.95496L104.425 7.37694L103.462 9.31109L103.074 16.0658L103.928 19.0265L107.421 18.6248L114.685 19.9192L117.681 21.4814L119.482 24.5761L121.329 24.7546L124.341 27.4624L127.709 27.6559L129.758 26.8227L134.167 30.7803L135.222 30.7356L135.983 32.4913L134.632 33.9047L135.812 38.1152L138.948 41.4777L143.201 43.0547L142.828 50.8658L145.762 56.6385L145.56 58.9892L147.889 64.1668L150.373 63.899L154.921 68.7791L154.797 72.3945L155.433 73.793L157.42 74.7601L157.73 80.0865L160.633 82.1545L161.301 84.3863L163.551 85.9187L167.882 86.9304L172.555 86.3353L171.732 87.4363L171.918 90.5904L169.916 92.2419L167.758 92.4948L164.654 90.8285L158.833 93.9975L152.965 95.9317L153.027 96.7946L163.055 95.2175L164.623 96.8839L163.66 98.6098L165.104 98.8478L166.439 97.36L171.437 96.4971L178.298 92.1675L183.483 90.4268L193.511 83.925L194.535 82.8538L194.473 81.247L197.919 80.9345L198.556 81.247L199.145 86.9007L198.338 90.7392L198.851 93.1495L202.141 97.5534L202.421 100.693L198.851 103.609L194.675 102.061L191.26 101.809L187.953 100.261L187.55 98.5949L186.184 97.8063L182.645 103.49L181.698 107.016L183.514 112.387L184.942 113.309L183.374 111.613L182.893 106.837L186.882 100.559L190.468 102.314L194.566 106.629L194.178 109.634L193.029 110.453L193.65 113.919L194.458 115.601L198.152 117.669L194.209 113.8L194.737 107.552L196.01 105.781L198.23 106.867L199.518 108.653L199.378 109.828L201.241 111.107L198.664 105.037L202.172 101.585L207.683 102.672L208.211 103.505L207.264 104.382L208.506 104.844L218.518 101.809L222.43 103.698L227.35 103.073L232.116 100.098L236.012 99.443L232.566 108.772L230.564 111.911L231.449 115.348L230.952 119.023L232.318 117.252L232.333 115.169L236.478 105.96L238.216 103.639L243.541 102.314L250.169 93.7446L251.395 94.4736L252.358 93.7892L254.873 97.2707L256.72 98.1485L256.083 95.9317L257.046 94.429L255.431 93.8636L255.4 89.9358L258.831 90.2334L260.492 85.6211L259.483 82.5562L261.299 79.8633L265.707 76.1735L268.005 77.7506L273.267 74.5518L274.043 76.0694L273.547 77.0662L275.208 76.8281L278.017 74.522L281.665 78.5987L281.805 77.2001L280.097 75.995L280.175 73.5847L284.397 73.674L289.721 77.2299L292.283 76.0694L293.105 79.2533L292.283 80.5923L293.711 79.8187L295.511 76.3223L296.381 79.2979L300.277 78.9111L300.975 79.8782L301.69 82.3777L300.758 83.7911L302.078 83.0472L305.415 83.7911L310.895 81.9462L309.265 87.0346L312.462 85.3831L313.44 87.7933L311.516 89.9953L310.662 98.58L309.777 99.681L308.007 99.9042L308.349 101.556L309.886 101.318L310.553 102.106L309.032 108.995L305.757 112.387L305.182 118.368L299.47 122.965L301.084 125.316L299.858 126.521L299.439 131.133L295.868 135.909L292.826 138.201L289.178 149.791L283.652 153.927L282.69 158.212L280.284 159.952L277.21 164.892L275.394 166.261L271.746 165.919L248.912 183.519L249.672 183.638L253.227 184.844L258.132 184.65L259.716 187.12L263.643 189.53L263.007 191.464L259.933 192.536L260.073 194.633L261.641 196.627L260.212 200.719L256.953 202.132L256.72 206.595L254.702 206.819L252.358 208.812L251.038 210.702L250.899 213.692L241.709 217.189L237.58 220.343L238.341 227.574L233.932 234.046L235.112 236.783L239.101 240.294L238.077 246.305L235.345 253.967L233.668 255.173L229.291 263.757L224.401 266.629L217.292 275.972L215.538 282.608L212.945 287.994ZM245.792 94.1166L238.775 97.0327L233.513 97.8063L230.377 97.3451L229.368 99.0264L226.512 100.797L224.743 99.8595L223.097 101.66L217.245 99.2198L216.003 100.291L209.499 102.166L204.532 101.318L203.274 100.41L202.545 97.0476L199.161 93.1495L198.835 90.5012L199.642 86.4097L200.605 85.8443L203.337 86.3799L204.78 85.2641L204.904 84.4309L200.993 84.8772L199.534 83.8209L199.254 82.2587L199.782 74.7006L200.915 73.5698L201.458 74.6857L202.359 74.5369L200.962 71.3232L202.902 65.8927L206.472 63.0659L210.601 62.1434L227.164 65.5654L232.908 64.881L234.848 63.5122L238.201 62.9617L257.092 65.8778L258.07 66.5771L257.993 68.4071L255.851 71.7398L253.972 80.5923L251.97 81.604L251.783 84.4011L248.71 88.2397L245.792 94.1166ZM172.508 93.8636L171.344 93.1048L173.051 89.7573L172.912 87.0941L176.917 86.0675L178.314 84.788L178.252 80.5774L179.587 76.7389L185.097 72.3349L189.552 72.0374L190.67 75.5486L187.643 83.3299L182.645 88.4182L174.976 93.3429L172.508 93.8636ZM216.717 59.7927L210.089 59.2868L209.065 55.4185L214.342 54.8531L217.742 52.9338L225.208 52.0411L227.459 53.4397L227.18 54.9573L223.206 57.0253L220.443 60.7151L218.735 61.4888L216.717 59.7927ZM224.153 59.7927L227.04 58.0073L230.114 58.0519L232.675 58.9744L233.591 61.3697L232.225 62.5154L225.984 63.3932L222.476 62.069L222.166 61.2805L224.153 59.7927ZM197.795 66.3242L193.697 64.9703L195.016 61.8756L201.66 59.9266L203.709 60.0456L204.951 61.0573L197.795 66.3242ZM212.417 51.9072L211.145 51.4609L211.114 48.1133L212.93 46.1643L217.136 44.9591L218.021 47.295L212.417 51.9072ZM190.949 81.9909L192.641 75.8164L196.662 73.302L198.851 73.0937L198.602 75.7569L196.181 76.4116L190.949 81.9909ZM207.885 55.85L205.572 54.6746L206.938 53.2463L208.04 47.3694L209.422 45.5394L210.881 52.6809L207.885 55.85ZM184.895 71.0108L184.678 69.8205L188.559 64.4495L191.943 62.6642L191.011 66.3688L184.895 71.0108ZM206.426 60.5515L204.206 59.2719L202.716 56.8319L204.252 54.987L207.574 56.8765L207.947 59.9861L206.426 60.5515ZM198.074 106.019L195.715 105.097L194.644 105.781L193.48 105.364L190.872 102.776V101.868L192.859 101.853L197.609 103.817L198.074 106.019ZM165.243 97.7766L165.011 95.7978L165.942 94.3249L169.605 93.0156L172.167 94.8605L170.118 96.0805L166.175 96.6905L165.243 97.7766ZM184.958 87.8231L185.532 85.8443L188.31 83.434L189.413 79.2087L189.909 82.1248L188.528 86.1865L184.958 87.8231ZM194.737 73.0937L197.298 68.6898L199.751 68.66L200.17 69.9544L199.27 71.0108L194.737 73.0937ZM191.539 72.3498L190.701 72.0523L191.198 69.0171L193.604 66.3986L195.591 68.0649L193.185 69.0171L191.539 72.3498ZM195.001 79.8335L196.118 79.8782L194.054 81.0089L193.883 82.6753L190.033 84.9963L190.934 82.5562L193.619 80.0716L195.001 79.8335Z" fill="#CCCCCC" stroke="white" stroke-width="0.5"/>
</svg>
