<svg width="194" height="180" viewBox="0 0 194 180" fill="none" xmlns="http://www.w3.org/2000/svg">
<path d="M103.821 179L99.9403 176.679L100.748 170.326L100.266 162.411L110.511 150.895L108.245 148.44L103.091 146.625L99.4902 143.278L97.6119 140.867L96.7892 136.746L91.6822 130.393L86.9321 127.715L84.6813 128.027L81.732 125.781L77.4321 122.195L77.2148 119.666L74.2655 116.452L69.1119 115.768L64.9983 112.599L62.2663 112.792L58.8978 110.739L54.2099 103.002L50.2826 99.8482L49.196 99.9672L48.156 102.63L44.1356 105.963L39.991 106.142L40.7671 99.982L40.1617 98.4942L34.4959 92.1115L20.5408 79.9858L14.2541 80.09L10.7924 84.9849L3.26384 84.5088L1.24588 82.1135L4.17968 80.7149L8.09147 76.5936L9.19359 71.9962L13.4624 70.8358L14.8905 69.348L23.3504 59.707L25.8651 54.3508L29.8545 52.4761L33.0522 45.29L38.6095 40.7819L42.8006 34.0273L46.6813 33.8635L47.5351 35.039L48.2647 33.1345L45.8431 31.0516L46.3088 30.025L49.2581 28.0313L53.589 26.6179L56.647 22.3033L60.0776 20.5923L63.9117 19.9972L66.6593 17.3042L68.9411 12.2158L69.9812 12.9895L72.0457 12.7366L79.9935 10.1775L81.8717 9.32948L85.1315 5.83315L86.9477 5.26777L88.5155 3.25926L92.1013 2.17309L92.5669 2.73847L98.031 3.31874L103.091 1.60771L103.961 0.402588L106.056 1.26555L105.823 2.63431L110.605 2.58972L113.135 4.06265L117.109 3.51216L120.089 5.22309L130.831 4.64292L138.189 8.09466L139.741 11.7249L142.209 12.0076L142.349 11.2934L145.158 10.7727L153.789 16.0395L155.916 18.3456L159.44 19.7591L170.802 34.3992L183.003 36.7946L186.279 36.1994L191.479 36.7053L192.845 40.1868L187.645 43.1476L186.511 45.9149L186.263 51.4942L185.456 53.4283L183.624 53.7259L181.622 56.2403L181.575 58.3381L184.369 60.0789V56.9099L186.682 55.6898L192.783 59.216L184.556 72.2641L178.02 89.5228L168.241 105.115L159.797 115.024L149.691 123.891L140.238 129.366L135.426 135.779L136.683 129.545L135.006 126.376L136.45 126.123L140.471 127.641L145.748 124.531L151.337 117.985H153.618L155.248 116.735L157.266 112.643L157.499 106.097L159.936 105.993L161.504 107.674L162.047 107.287L161.597 105.204L162.389 102.125L167.387 98.9109L168.52 97.304L168.924 89.8203L169.793 88.8086L170.569 89.9989L171.811 89.4186L172.541 84.8361L170.911 82.3664L169.871 82.3217L168.971 85.0742L163.507 85.6396L162.979 88.0349L162.156 88.1093L160.899 87.4547L161.054 84.9106L159.781 83.5864L158.167 84.0773L157.235 83.3632L154.674 77.4566L153.727 81.4885L154.41 84.8361L156.35 87.9755L154.317 92.9596L154.627 98.6133L152.811 94.1647L149.753 102.05L150.017 105.636L146.4 107.629L145.453 109.98L137.987 113.105L137.009 118.848L135.503 122.225L131.84 124.159L131.669 126.778L132.802 129.53L131.328 130.363L130.939 132.61L131.607 133.503L134.681 134.232L134.913 135.586L131.607 138.04L128.006 144.765L125.01 155.002L121.89 161.682L119.282 165.431L103.821 179Z" fill="#CCCCCC" stroke="white" stroke-width="0.5"/>
</svg>
