<svg width="96" height="66" viewBox="0 0 96 66" fill="none" xmlns="http://www.w3.org/2000/svg">
<path d="M22.014 58.9333L22.4952 57.3711L27.447 57.6985L31.4675 56.8206L25.367 53.7557L21.005 54.7675L18.8939 57.1479L16.2084 57.5497L14.1129 54.3509H13.3678L10.465 56.5528L5.57531 57.7431L4.7526 61.9238L8.15211 62.1173L9.81302 63.6199L8.0279 65.2268L4.36452 65.2119L1.08917 62.2512L2.70356 56.4338L4.39555 54.7228L8.04344 53.2201L13.1194 52.8928L15.4478 51.8365L18.0091 48.6376L16.8449 46.1976L9.33182 46.9564L6.58428 46.3762L3.79014 42.2698L1.81875 41.4664L11.1635 37.6427L15.9446 37.7915L26.5932 32.8519L32.9111 33.1049L38.2509 31.379L42.1782 31.7807L42.9078 32.718L45.05 32.4204L63.724 24.2077L63.6153 22.5265L61.38 22.3331L61.5197 21.2172L68.1169 6.69616L66.9838 5.63978L69.7779 4.50907L73.7052 0.997803L76.7011 2.12856L77.7411 9.13615L88.3432 12.3201L92.9846 11.7696L95.4993 13.3467L93.59 20.7858L95.3596 30.8732L89.8024 34.4885L80.5352 37.3749L76.1423 39.9339L70.7093 45.424V52.0596L69.5761 54.2616L66.751 55.0204L56.5835 54.7675L47.5957 55.8089L43.8858 55.1245L43.032 53.5474L45.6709 49.1882L45.5312 48.2657L44.3204 47.9979L39.9895 49.7089L39.5859 50.7354L42.1938 53.6664L42.5818 55.1096L41.666 55.8833L22.014 58.9333ZM14.0818 61.8941L13.0418 60.4509L16.3171 58.1448L19.8874 60.5848L16.0687 61.3287L14.7028 60.808L14.0818 61.8941Z" fill="#CCCCCC" stroke="white" stroke-width="0.5"/>
</svg>
