<svg width="171" height="135" viewBox="0 0 171 135" fill="none" xmlns="http://www.w3.org/2000/svg">
<path d="M117.775 126.88L115.772 124.722L115.089 121.925L112.667 121.152L108.523 121.747L102.205 119.054L101.165 117.551L99.1936 118.429L93.7606 114.486L91.991 110.246L90.3766 109.666L87.6291 111.332L85.7353 111.288L83.5466 110.097L82.1961 108.118L77.3374 105.768L74.2949 105.515L71.1283 107.583L60.3554 105.708L57.344 103.298L56.8783 100.367L51.4918 98.1948L49.7688 95.3381L44.9567 94.4008L43.6528 88.881L42.2868 87.5569L41.5417 89.2827L40.5172 88.8066L40.098 87.8544L41.0605 85.5781L39.7565 83.3166L37.6454 82.7363L35.6896 77.5736L35.4257 75.1039L37.8317 70.7743L37.5057 68.3045L34.5408 62.1599L34.4477 58.7528L37.6144 54.4084L38.1732 52.2213L37.009 46.4039L37.8472 43.949L36.0311 40.7056L34.4477 40.1402L31.3587 43.7854L27.0899 42.2678L19.049 42.3868L5.41994 45.7344L0.809647 43.8597L5.87011 40.0509L8.8505 39.188L11.2565 36.4951L11.241 33.7426L21.8431 33.6384L27.1209 37.6258L29.0147 36.4504L29.8529 34.5907L34.8513 33.4599L39.7255 30.1421L41.3088 33.6384L43.4199 34.308L47.3628 29.6065L46.9591 27.0028L47.7819 25.753L50.4984 23.8784L55.295 24.8752L57.1577 23.2833L60.464 22.7179L66.4714 23.4023L66.2696 18.5371L69.4673 16.7369L71.2835 13.5083L69.6226 11.7973L69.7002 10.8005L71.5474 8.43486L75.8007 7.319L75.661 5.57826L78.3309 4.83435L80.473 1.02554L97.2222 0.936279L100.56 2.61749L102.5 6.18826L104.565 8.0778L108.507 9.53585L110.448 14.401L113.645 14.8176L114.701 19.1025L119.73 21.3045L120.786 21.0218L121.624 18.433L124.605 16.8261L126.762 17.2427L127.259 18.8496L129.432 20.2927L130.364 22.1376L127.181 31.6745L128.889 33.8021L130.41 39.2475L128.951 41.7322L129.541 44.6036L127.942 51.031L128.361 53.6496L130.69 57.7411L129.292 71.1314L155.93 71.2058L155.557 72.039L157.451 73.6904L162.884 73.5565L166.268 74.3599L168.457 79.7012L166.02 83.4207L163.908 85.0276L163.691 86.9915L164.359 91.8269L166.656 92.541L169.031 97.5103L169.869 102.777L168.891 108.654L166.315 111.645L164.607 116.242L161.394 117.64L159.95 119.247L156.923 128.516L148.261 134.468L143.092 132.102L141.121 129.974L130.131 131.403L127.694 130.317L122.447 131.299L120.895 129.052L117.775 126.88Z" fill="#CCCCCC" stroke="white" stroke-width="0.5"/>
</svg>
