<svg width="90" height="51" viewBox="0 0 90 51" fill="none" xmlns="http://www.w3.org/2000/svg">
<path d="M88.7932 39.1361L80.3023 39.7759L73.1152 37.6929L64.0653 38.2732L57.9337 37.1573L56.4746 34.3602L54.3325 34.4346L51.5073 36.4432L51.0261 38.6451L52.9665 42.082L51.3987 41.6059L50.6535 42.4837L51.6315 45.9949L50.7777 47.7952L50.0016 48.8962L46.3537 50.2798L45.0653 49.1789L45.8725 46.8876L44.491 45.1469L38.7165 44.8195L33.8268 46.6942L32.3987 43.9566L26.9191 43.183L27.0433 40.6239L29.3251 39.2254L30.598 35.2083L35.2393 30.4324L35.2239 28.6619L34.4011 28.0072L21.1911 31.4143L20.3994 34.3751L12.3121 39.5825L6.44439 38.05L3.44849 35.61L2.56367 36.2944L0.545715 36.6068L1.07353 33.6758L4.56618 29.019L8.16741 29.2868L11.3186 25.4036L13.4918 21.7733L14.268 18.1877L16.9223 15.6733L22.0449 5.71977L26.0964 2.72927L33.687 0.363647L35.7516 2.61024L42.504 3.20536L45.1274 5.80903L47.1764 6.55294L52.3455 6.07685L56.8161 6.85052L64.3758 5.40734L73.3325 6.83563L76.3595 8.11515L78.9362 10.7337L82.522 17.786L85.8595 32.069L86.9771 32.8724L88.7932 39.1361Z" fill="#CCCCCC" stroke="white" stroke-width="0.5"/>
</svg>
