<svg width="145" height="157" viewBox="0 0 145 157" fill="none" xmlns="http://www.w3.org/2000/svg">
<path d="M142.182 92.3519L144.666 117.6L115.964 117.496L116.011 118.508L109.817 127.866L107.923 133.475L108.11 135.543L109.879 137.641L109.196 139.01L106.045 139.828L101.916 142.61L99.0907 142.268L97.6626 138.534L94.7598 135.499L90.3668 134.115L87.8832 134.204L87.0294 135.528L81.7982 137.611L80.2149 139.486L78.942 143.905L79.1283 149.157L77.9641 152.564L78.6471 155.703L74.9837 154.156L72.0809 154.676L68.1691 149.186L64.3195 147.178L56.5425 140.602L56.7598 138.906L59.616 139.397L61.4788 136.57L59.7247 130.127L56.9306 127.539L55.5646 124.31L55.1144 116.901L57.1945 110.95L55.6111 106.233L58.1258 104.061L56.6977 101.725L56.4028 98.3626L53.826 91.2806L49.5883 85.7162L52.103 78.5449L48.3154 76.1495L43.3325 75.7478L41.4543 74.0071L41.3611 72.5788L37.6822 73.0251L35.4004 71.3588L35.7574 66.9549L24.7051 66.8209L19.567 65.7795L20.6847 60.0663L15.4069 49.1011L14.6773 43.5664L15.9036 41.3644L15.7794 39.9361L5.20835 31.2473L3.11277 27.126L0.955093 25.5787L1.45181 23.838L4.58744 24.9241L6.04659 27.498L12.2557 26.888L17.3162 27.9146L19.9551 33.0922L24.0687 31.4109L29.0049 31.649L32.6994 33.7468L33.5066 33.5385L34.4535 31.2175L36.487 31.4258L38.7378 32.8095L44.8382 39.6088L47.5703 40.6205L49.9142 39.6088L51.0629 37.9276L49.9297 32.5714L50.4886 29.9826L54.1985 29.4917L58.1724 26.2333L65.3905 28.3014L69.1471 26.5309L72.5 26.7392L74.5801 24.8348L79.6406 24.7009L80.6961 23.4363L80.7737 21.4277L85.4771 18.7348L93.3783 18.4372L95.8154 14.0333L99.8513 12.5008L103.282 8.40932L101.419 3.1127L99.603 2.57708L109.6 2.74074L112.394 1L114.52 1.62488L117.703 6.80248L116.663 14.0928L115.545 16.146L113.605 17.1874L113.698 18.4223L118.712 18.705L125.185 21.5467L123.819 23.6743L123.803 25.3853L127.435 30.4736L127.746 32.7797L125.402 37.1242L122.484 39.222L121.366 41.4537L121.878 45.2625L119.596 48.8481L117.718 56.7931L117.578 60.7655L119.1 63.5478L119.876 68.2493L123.71 70.0793L123.384 79.8542L126.194 80.2857L125.169 82.0264L129.221 83.8713L135.616 90.8045L142.182 92.3519Z" fill="#CCCCCC" stroke="white" stroke-width="0.5"/>
</svg>
