<svg width="134" height="90" viewBox="0 0 134 90" fill="none" xmlns="http://www.w3.org/2000/svg">
<path d="M100.783 88.2159L94.6822 84.6898L92.3848 85.9098L92.3693 89.0789L89.5751 87.3381L89.6372 85.2403L91.6242 82.7259L93.4559 82.4283L94.2786 80.4793L94.5115 74.9L95.6446 72.1326L100.829 69.157L99.4633 65.6755L94.2631 65.1697L90.9877 65.7647L78.7868 63.3843L67.424 48.7441L63.8848 47.3308L61.7582 45.0246L53.1275 39.7578L50.3178 40.2637L50.1781 40.9778L47.6945 40.6951L46.1422 37.0648L38.7843 33.6131L28.0425 34.1934L25.0776 32.4823L21.0882 33.0179L18.558 31.5599L13.777 31.6046L14.0098 30.2209L11.9142 29.358L11.0449 30.5631L5.9845 32.2889L0.520416 31.7087L3.91993 24.2399L3.01962 19.4045L3.6095 10.8346L5.09968 8.23096L12.6593 7.72511L14.3047 8.08217L17.9371 10.9388L25.7451 10.1354L33.9567 12.6349L40.5695 13.1705L44.8537 16.4735L57.2876 16.9049L59.3521 19.7318L63.5588 17.1132L62.2394 12.6647L64.4281 9.1534L67.5327 7.45731L73.0744 8.05243L75.9771 6.60925L78.0262 3.11287L80.4012 2.1458L85.5858 3.11287L94.7753 1.77385L101.233 6.23729L105.377 7.38289L112.673 2.08628L115.095 1.23821L116.445 1.92264L119.658 0.910889L127.792 0.955521L127.187 2.91945L127.87 5.9546L125.542 7.65069L124.02 6.93657L123.632 8.8856L127.172 12.7539L125.604 16.161L125.355 19.6127L126.69 21.3386L127.094 30.0572L128.258 31.173L129.453 30.4142L130.152 32.7799L128.755 32.4526L126.908 33.3899L126.38 39.1031L127.265 42.9566L126.38 44.0725L128.274 49.7261L126.132 59.1737L123.477 66.1367L122.391 64.8572L122.716 63.4141L121.288 61.6584L120.885 62.1494L121.164 65.7647L122.965 66.9997L121.537 69.4694L118.991 70.4365L108.234 78.7682L100.783 88.2159ZM128.538 48.7144L129.857 41.8259L129.469 38.5526L131.999 37.5112L133.024 38.9097L132.185 42.7185L129.997 45.8132L130.307 47.5539L128.538 48.7144ZM127.839 12.4563L124.936 9.45098L129.283 5.89508L130.292 7.45731L127.839 12.4563Z" fill="#CCCCCC" stroke="white" stroke-width="0.5"/>
</svg>
