<svg width="46" height="49" viewBox="0 0 46 49" fill="none" xmlns="http://www.w3.org/2000/svg">
<path d="M18.7107 47.3463L14.209 48.6704L7.23925 44.7724L6.12165 43.3887L6.61839 40.1155L0.409241 32.2747L1.7907 28.332L4.42961 28.3469L6.18371 29.4628L10.142 27.9898L11.6788 26.3086L10.4991 22.2171L11.6478 18.4976L11.7719 13.8705L7.51865 9.25824L5.54731 5.5387L5.20576 2.35478L6.24576 0.643799L16.2736 5.07748L21.986 6.4909L30.3994 11.0585L32.4174 14.7036L44.0129 21.3988L44.9444 23.3478L41.2499 24.4786L34.156 28.8528L30.2442 33.465L28.2883 29.0908L26.7515 29.3289L27.2793 31.0547L28.8316 31.7243L28.7539 34.3428L26.7826 37.4523L25.3855 35.9348L23.8487 35.6967L25.9133 37.6309L25.5097 40.2643L22.7311 44.9955L21.5203 45.2188L21.7997 42.4514L23.4917 40.0709L22.2344 39.5204L20.5424 44.579L20.9771 45.6502L18.7107 47.3463Z" fill="#CCCCCC" stroke="white" stroke-width="0.5"/>
</svg>
