<svg width="220" height="140" viewBox="0 0 220 140" fill="none" xmlns="http://www.w3.org/2000/svg">
<path d="M124.024 138.935L123.776 136.956L121.572 136.108L120.439 131.198L121.06 128.297L116.558 127.687L113.826 133.073L112.181 132.284L111.637 131.124L112.708 126.214L114.307 124.637L111.808 122.747L106.096 122.271L97.0923 123.238L94.5931 122.361L94.0809 119.325L96.4404 114.594L95.1209 113.508L93.786 109.268L90.0915 106.129L87.7786 101.65L88.4616 98.2134L86.4436 95.9519L85.8538 93.2143L86.723 91.1463L86.692 87.0697L85.3105 84.4511L79.7377 80.2406L77.9837 77.9345L73.3734 79.214L65.1307 79.0206L61.5449 77.994L58.2231 78.3957L56.143 75.673L50.6944 74.4828L46.7516 71.7452L39.0523 72.37L26.9289 68.472L23.3742 70.8376L12.058 70.5698L6.11274 69.6027L1.06781 73.0098L5.46081 67.4156L17.1961 60.6609L20.223 57.8787L25.4853 49.9487L27.7206 48.4162L27.6119 45.3513L32.5948 38.4925L32.2378 34.2225L38.1209 27.4529L39.3317 20.5941L42.0327 19.1955L47.0155 13.6758L52.1226 12.1135L53.1781 7.87325L58.4093 4.54056L61.3897 3.99007L63.6095 1.47566L65.9379 0.568115L69.7876 3.06763L80.4053 4.62982L88.6013 3.55859L94.5776 6.8318L94.8725 10.3133L96.7508 13.4228L98.567 12.9765L100.243 9.8967L101.501 9.68838L102.448 11.6969L102.463 15.8331L104.326 16.6216L104.962 15.9521L104.543 12.1731L106.002 9.68838L118.7 8.69157L120.268 6.8318L124.335 9.6289L128.65 8.60231L129.504 5.55226L133.199 5.38862L135.775 6.54912L139.113 5.16546L144.173 10.1496L144.484 11.6969L143.149 16.7258L146.967 19.4336L147.588 21.7397L145.136 25.5931L144.856 28.4795L146.564 30.5029L147.138 33.791L149.156 36.4691L150.398 40.6796L156.095 39.534L162.195 42.0484L161.031 47.1813L158.144 51.2282L158.252 60.7353L157.43 63.0564L158.547 65.4368L164.12 68.5017L164.912 71.0608L163.033 72.1022L166.169 77.0269L171.043 77.0418L171.323 77.8303L176.942 76.3425L177.811 76.9674L179.845 76.4913L181.009 75.0332L180.978 70.0193L182.825 69.5283L182.437 71.4922L189.779 71.2393L197.448 66.88L200.878 66.5527L202.803 65.4666L204.775 66.27L207.569 70.3764L210.316 70.9566L217.829 70.1978L218.993 72.6378L216.432 75.8367L214.104 76.893L209.028 77.2203L205.38 78.723L203.688 80.434L202.074 86.2514L205.349 89.2121L202.617 90.1346L200.971 88.9145L197.246 92.8127L188.739 96.1602L188.631 101.189L186.458 101.576L183.306 100.192L177.128 99.6715L172.378 101.397L169.724 105.34L167.69 106.188L166.914 106.01L167.815 105.31L167.069 103.495L165.253 102.231L163.965 104.061L163.903 106.084L152.074 112.392L150.6 113.612L150.118 115.338L145.042 119.802L139.998 122.703L137.017 123.491L125.375 131.288L124.692 132.21L127.098 132.939L128.542 132.403V133.534L124.024 138.935ZM192.806 104.7L187.855 103.451L191.161 98.5705L193.319 99.9095L193.52 104.239L192.806 104.7Z" fill="#CCCCCC" stroke="white" stroke-width="0.5"/>
</svg>
