<svg width="122" height="192" viewBox="0 0 122 192" fill="none" xmlns="http://www.w3.org/2000/svg">
<path d="M109.684 179.296L101.364 181.409L94.6887 185.039L85.2508 186.527L78.576 190.961L75.518 186.705L74.6642 186.661L73.8725 191.571L72.8015 191.69L67.6013 190.678L62.7426 188.491L63.2704 185.069L56.2386 185.857L51.9543 185.351L49.455 188.759L47.6855 188.684L45.0155 178.552L41.616 173.806L37.5025 178.805L34.9722 187.643L33.9943 187.985L22.8799 183.313L16.7794 182.718L9.63888 180.59L10.4461 177.109L12.3399 174.312L12.3865 171.768L8.7075 175.324L6.84478 180.62L4.11274 179.832L2.59148 174.862L3.7402 170.756L3.05719 166.218L2.25002 165.355L2.96406 158.095L1.25653 154.747L2.85539 151.385L0.697734 149.391L0.604553 148.111L3.52286 139.199L4.42321 130.392L8.67647 120.855L9.35948 116.183L11.067 114.323L12.9453 109.994L15.46 104.504L17.214 97.8828L24.3235 88.5393L29.2132 85.6678L33.5907 77.0831L35.2827 75.8929L38.0147 68.2306L39.0392 62.2199L35.0654 58.7086L33.8856 55.9859L38.2941 49.499L37.5335 42.2831L41.6626 39.1141L50.8366 35.6177L50.9763 32.6272L52.3113 30.7377L54.6552 28.744L56.6577 28.5208L56.8905 24.0574L60.1503 22.6588L61.5939 18.5673L60.0106 16.5737L59.8709 14.4907L62.9444 13.4046L63.5654 11.4705L59.6536 9.06021L58.0703 6.59045L53.165 6.78385L49.6103 5.57873L54.5 1.87408L58.893 1.15991L63.2083 3.4214L69.5572 3.19823L71.0319 6.23337L78.2034 8.40559L79.5074 9.93804L81.2304 17.3771L80.9044 22.9118L82.286 26.8545L79.5384 36.0045L79.1037 43.3841L76.3872 46.4192L73.6553 47.4161L73.3758 48.4724L76.3872 50.4364L79.1659 50.3917L79.7247 52.2217L78.7622 53.9922L80.0817 56.1347L81.4477 56.0305L91.0564 67.9777L94.3783 65.984L101.007 64.5855L103.801 66.4006L102.931 73.8397L103.537 75.8482L98.2745 76.369L95.3096 77.9907L93.1209 84.1056L93.6952 86.0398L89.2092 90.8752L94.2075 92.9581L96.4117 99.3408L102.435 102.242L102.574 103.031L100.029 105.724L100.23 108.178L103.552 110.589L105.089 114.859L107.169 117.834L112.587 118.236L116.793 121.093L121.357 121.405L119.075 124.53L113.145 127.535L108.163 131.433L109.87 134.662L106.346 136.551L103.987 141.744L101.643 144.541L102 145.909L104.887 148.811L110.46 149.808L113.363 151.28L113.44 152.411L109.404 154.286L108.737 155.714L109.42 156.949L112.447 157.113L113.797 158.824L107.495 162.99L107.666 170.458L111.391 172.169L111.733 174.371L109.622 177.912L109.684 179.296Z" fill="#CCCCCC" stroke="white" stroke-width="0.5"/>
</svg>
